<svg xmlns="http://www.w3.org/2000/svg" version="1.1" width="245" height="66" viewBox="0 0 245 66" role="img" aria-label="delete 3D text [NAME] — delete3DText"><title>delete 3D text [NAME] — delete3DText</title><defs><g id="sb3-eclipseBlock" transform="scale(.625)"><path d="M30 6A26 26 0 1 0 30 58A30 30 0 0 1 30 6Z" fill="#FFFFFF"/><path d="m45 18 15 9-15 9-15-9Zm-15 13 13 8v15l-13-8Zm17 8 13-8v15l-13 8Z" fill="#FFFFFF"/></g><style>.sb3-extension{fill:#485B8C;stroke:#2C3A5E}.sb3-extension-alt{fill:#3B4C78}.sb3-extension-dark{fill:#2C3A5E}.sb3-input-number,.sb3-input-string{fill:#fff;stroke:#2C3A5E}.sb3-input-color{stroke:#fff}.sb3-control{fill:#FFAB19;stroke:#CF8B17}.sb3-events{fill:#FFBF00;stroke:#CC9900}.sb3-operators{fill:#59C059;stroke:#389438}.sb3-variables{fill:#FF8C1A;stroke:#DB6E00}</style><path id="glyph-72" d="M80 529L80 550Q80 673 109 774.5Q138 876 193 949.5Q248 1023 327 1062.5Q406 1102 505 1102Q603 1102 677 1064Q738 1033 784 979L784 1536L1026 1536L1026 0L807 0L795 116Q745 53 677 18Q602 -20 503 -20Q405 -20 326.5 21Q248 62 193 136Q138 210 109 310.5Q80 411 80 529ZM321 550L321 529Q321 455 334.5 391Q348 327 377 278.5Q406 230 452.5 202.5Q499 175 564 175Q646 175 699 211Q752 247 783 309Q783 310 784 312L784 773Q769 802 750 827Q719 865 673.5 886.5Q628 908 566 908Q500 908 454 880Q408 852 378.5 803Q349 754 335 689Q321 624 321 550Z"/><path id="glyph-73" d="M601 -20Q481 -20 384.5 19.5Q288 59 220.5 130Q153 201 117 297Q81 393 81 504L81 544Q81 671 118 774Q155 877 221 950.5Q287 1024 377 1063Q467 1102 572 1102Q688 1102 775 1063Q862 1024 919.5 953.5Q977 883 1005.5 786Q1034 689 1034 572L1034 469L324 469Q328 418 343 373Q362 312 400 267Q438 222 492 196.5Q546 171 615 171Q702 171 770 206Q838 241 888 305L1015 182Q980 131 924 84.5Q868 38 787.5 9Q707 -20 601 -20ZM329 642L796 642L796 661Q794 726 770.5 783Q747 840 699 875Q651 910 571 910Q511 910 464.5 884.5Q418 859 387 811Q356 763 340 696Q333 670 329 642Z"/><path id="glyph-80" d="M382 1536L382 0L140 0L140 1536Z"/><path id="glyph-88" d="M620 1082L620 906L427 906L427 299Q427 249 441.5 222.5Q456 196 482 187Q508 178 543 178Q568 178 591 181Q614 184 628 187L629 3Q599 -6 559.5 -13Q520 -20 469 -20Q386 -20 322 9.5Q258 39 222 106Q186 173 186 284L186 906L10 906L10 1082L186 1082L186 1347L427 1347L427 1082Z"/><path id="glyph-23" d="M393 837L537 837Q621 837 676.5 866Q732 895 759 946Q786 997 786 1063Q786 1132 761.5 1181.5Q737 1231 687.5 1258Q638 1285 562 1285Q498 1285 446.5 1259.5Q395 1234 365 1187.5Q335 1141 335 1077L93 1077Q93 1193 154 1283Q215 1373 320.5 1424.5Q426 1476 558 1476Q699 1476 804.5 1429.5Q910 1383 969 1291Q1028 1199 1028 1063Q1028 1001 999 937Q970 873 913 821Q866 778 801 748Q886 718 940 669Q997 616 1023.5 549Q1050 482 1050 407Q1050 305 1013.5 225.5Q977 146 910 91Q843 36 753.5 8Q664 -20 559 -20Q465 -20 379 6Q293 32 225 83.5Q157 135 117.5 212.5Q78 290 78 392L319 392Q319 327 349.5 277.5Q380 228 435.5 200Q491 172 563 172Q639 172 694 199Q749 226 778.5 279Q808 332 808 407Q808 492 775 545Q742 598 681 623.5Q620 649 537 649L393 649Z"/><path id="glyph-40" d="M571 0L148 0L148 1456L580 1456Q725 1456 845 1407.5Q965 1359 1052.5 1268Q1140 1177 1187 1050Q1234 923 1234 766L1234 689Q1234 532 1187 405Q1140 278 1052 187.5Q964 97 842.5 48.5Q721 0 571 0ZM399 199L571 199Q706 199 797.5 258Q889 317 935.5 427Q982 537 982 689L982 768Q982 886 955.5 977Q929 1068 877.5 1130Q826 1192 751.5 1224Q677 1256 580 1256L399 1256Z"/><path id="glyph-92" d="M308 1082L514 723L724 1082L989 1082L661 551L1002 0L737 0L517 374L297 0L31 0L371 551L44 1082Z"/><path id="glyph-69" d="M742 107Q728 92 712 77Q665 34 600.5 7Q536 -20 452 -20Q346 -20 263 22.5Q180 65 133 137.5Q86 210 86 302Q86 388 118.5 454.5Q151 521 214.5 566Q278 611 370 634.5Q462 658 580 658L734 658L734 733Q734 791 713 833Q692 875 649.5 898Q607 921 543 921Q484 921 441 901Q398 881 374 847Q350 813 350 770L110 770Q110 834 141 894Q172 954 231 1001Q290 1048 372 1075Q454 1102 556 1102Q678 1102 772.5 1061Q867 1020 921.5 937.5Q976 855 976 731L976 250Q976 176 986.5 117.5Q997 59 1017 16L1017 0L770 0Q753 39 744 100Q743 103 742 107ZM734 509L598 509Q531 509 480 496.5Q429 484 395 460Q361 436 344 402Q327 368 327 325Q327 282 347 246.5Q367 211 405.5 191Q444 171 499 171Q573 171 628.5 201.5Q684 232 716 277Q727 291 734 306Z"/><path id="glyph-70" d="M125 1536L366 1536L366 976Q412 1032 476 1064Q550 1102 650 1102Q754 1102 833.5 1062Q913 1022 966 948.5Q1019 875 1045.5 774Q1072 673 1072 551L1072 530Q1072 410 1045.5 309.5Q1019 209 965.5 135Q912 61 833.5 20.5Q755 -20 652 -20Q551 -20 476 18Q404 54 355 120L343 0L125 0ZM831 530L831 551Q831 624 819 688.5Q807 753 779.5 802Q752 851 705.5 879.5Q659 908 590 908Q526 908 480 886Q434 864 403 826Q381 799 366 766L366 319Q368 315 370 312Q399 249 453 211.5Q507 174 592 174Q659 174 705 201Q751 228 778.5 276.5Q806 325 818.5 390Q831 455 831 530Z"/></defs><g style="transform: scale(1)"><g transform="translate(0 0)"><g transform="translate(2 1)"><path class="sb3-extension" d="M 0 4&#xA;      A 4 4 0 0 1 4 0&#xA;      H 12 c 2 0 3 1 4 2&#xA;      l 4 4&#xA;      c 1 1 2 2 4 2&#xA;      h 12&#xA;      c 2 0 3 -1 4 -2&#xA;      l 4 -4&#xA;      c 1 -1 2 -2 4 -2&#xA;      L 237 0&#xA;      a 4 4 0 0 1 4 4 L 241 52 a 4 4 0 0 1 -4 4 L 48 56 c -2 0 -3 1 -4 2 l -4 4 c -1 1 -2 2 -4 2 h -12 c -2 0 -3 -1 -4 -2 l -4 -4 c -1 -1 -2 -2 -4 -2 L 4 56 a 4 4 0 0 1 -4 -4 Z" fill="#485B8C" stroke="#2C3A5E"/><use href="#sb3-eclipseBlock" transform="translate(8 12)"/><line class="sb3-extension" stroke-linecap="round" x1="0" y1="0" x2="0" y2="40" transform="translate(56 8)"/><g aria-label="delete" fill="#FFFFFF" transform="translate(65 21)" x="0" y="13"><use transform="translate(0.000 13.000) scale(0.0078125 -0.0078125)" href="#glyph-72"/><use transform="translate(9.016 13.000) scale(0.0078125 -0.0078125)" href="#glyph-73"/><use transform="translate(17.586 13.000) scale(0.0078125 -0.0078125)" href="#glyph-80"/><use transform="translate(21.664 13.000) scale(0.0078125 -0.0078125)" href="#glyph-73"/><use transform="translate(30.234 13.000) scale(0.0078125 -0.0078125)" href="#glyph-88"/><use transform="translate(35.563 13.000) scale(0.0078125 -0.0078125)" href="#glyph-73"/></g><g aria-label="3D" fill="#FFFFFF" transform="translate(115 21)" x="0" y="13"><use transform="translate(0.000 13.000) scale(0.0078125 -0.0078125)" href="#glyph-23"/><use transform="translate(9.094 13.000) scale(0.0078125 -0.0078125)" href="#glyph-40"/></g><g aria-label="text" fill="#FFFFFF" transform="translate(140 21)" x="0" y="13"><use transform="translate(0.000 13.000) scale(0.0078125 -0.0078125)" href="#glyph-88"/><use transform="translate(5.328 13.000) scale(0.0078125 -0.0078125)" href="#glyph-73"/><use transform="translate(13.898 13.000) scale(0.0078125 -0.0078125)" href="#glyph-92"/><use transform="translate(21.945 13.000) scale(0.0078125 -0.0078125)" href="#glyph-88"/></g><g transform="translate(176 12)"><rect rx="16" ry="16" x="0" y="0" width="57" height="32" class="sb3-extension sb3-input sb3-input-string"/><g aria-label="label" fill="#575E75" transform="translate(11 9)" x="0" y="13"><use transform="translate(0.000 13.000) scale(0.0078125 -0.0078125)" href="#glyph-80"/><use transform="translate(4.078 13.000) scale(0.0078125 -0.0078125)" href="#glyph-69"/><use transform="translate(12.703 13.000) scale(0.0078125 -0.0078125)" href="#glyph-70"/><use transform="translate(21.695 13.000) scale(0.0078125 -0.0078125)" href="#glyph-73"/><use transform="translate(30.266 13.000) scale(0.0078125 -0.0078125)" href="#glyph-80"/></g></g></g></g></g></svg>
