<svg xmlns="http://www.w3.org/2000/svg" version="1.1" width="432" height="50" viewBox="0 0 432 50" role="img" aria-label="dot [AX] [AY] [AZ] with [BX] [BY] [BZ] — dotProduct3D"><title>dot [AX] [AY] [AZ] with [BX] [BY] [BZ] — dotProduct3D</title><defs><g id="sb3-eclipseBlock" transform="scale(.625)"><path d="M30 6A26 26 0 1 0 30 58A30 30 0 0 1 30 6Z" fill="#FFFFFF"/><path d="m45 18 15 9-15 9-15-9Zm-15 13 13 8v15l-13-8Zm17 8 13-8v15l-13 8Z" fill="#FFFFFF"/></g><style>.sb3-extension{fill:#485B8C;stroke:#2C3A5E}.sb3-extension-alt{fill:#3B4C78}.sb3-extension-dark{fill:#2C3A5E}.sb3-input-number,.sb3-input-string{fill:#fff;stroke:#2C3A5E}.sb3-input-color{stroke:#fff}.sb3-control{fill:#FFAB19;stroke:#CF8B17}.sb3-events{fill:#FFBF00;stroke:#CC9900}.sb3-operators{fill:#59C059;stroke:#389438}.sb3-variables{fill:#FF8C1A;stroke:#DB6E00}</style><path id="glyph-72" d="M80 529L80 550Q80 673 109 774.5Q138 876 193 949.5Q248 1023 327 1062.5Q406 1102 505 1102Q603 1102 677 1064Q738 1033 784 979L784 1536L1026 1536L1026 0L807 0L795 116Q745 53 677 18Q602 -20 503 -20Q405 -20 326.5 21Q248 62 193 136Q138 210 109 310.5Q80 411 80 529ZM321 550L321 529Q321 455 334.5 391Q348 327 377 278.5Q406 230 452.5 202.5Q499 175 564 175Q646 175 699 211Q752 247 783 309Q783 310 784 312L784 773Q769 802 750 827Q719 865 673.5 886.5Q628 908 566 908Q500 908 454 880Q408 852 378.5 803Q349 754 335 689Q321 624 321 550Z"/><path id="glyph-83" d="M78 529L78 552Q78 669 112 769.5Q146 870 210.5 944.5Q275 1019 368.5 1060.5Q462 1102 580 1102Q699 1102 792.5 1060.5Q886 1019 951 944.5Q1016 870 1050 769.5Q1084 669 1084 552L1084 529Q1084 412 1050 312Q1016 212 951 137.5Q886 63 793 21.5Q700 -20 582 -20Q463 -20 369.5 21.5Q276 63 211 137.5Q146 212 112 312Q78 412 78 529ZM319 552L319 529Q319 456 334 391Q349 326 381 277Q413 228 463 200Q513 172 582 172Q649 172 698.5 200Q748 228 780 277Q812 326 827.5 391Q843 456 843 529L843 552Q843 624 827.5 688.5Q812 753 779.5 803Q747 853 697.5 881.5Q648 910 580 910Q512 910 462.5 881.5Q413 853 381 803Q349 753 334 688.5Q319 624 319 552Z"/><path id="glyph-88" d="M620 1082L620 906L427 906L427 299Q427 249 441.5 222.5Q456 196 482 187Q508 178 543 178Q568 178 591 181Q614 184 628 187L629 3Q599 -6 559.5 -13Q520 -20 469 -20Q386 -20 322 9.5Q258 39 222 106Q186 173 186 284L186 906L10 906L10 1082L186 1082L186 1347L427 1347L427 1082Z"/><path id="glyph-21" d="M768 1461L768 0L527 0L527 1175L170 1054L170 1253L739 1461Z"/><path id="glyph-20" d="M1059 850L1059 612Q1059 441 1025.5 320.5Q992 200 929 125Q866 50 778.5 15Q691 -20 583 -20Q497 -20 423.5 2Q350 24 291 71Q232 118 190.5 192.5Q149 267 126.5 371Q104 475 104 612L104 850Q104 1022 138 1140.5Q172 1259 235 1333.5Q298 1408 385.5 1442Q473 1476 581 1476Q668 1476 741.5 1454.5Q815 1433 873.5 1387Q932 1341 973.5 1267.5Q1015 1194 1037 1090.5Q1059 987 1059 850ZM818 578L818 886Q818 973 808 1039.5Q798 1106 778.5 1152.5Q759 1199 730 1228.5Q701 1258 664 1271.5Q627 1285 581 1285Q525 1285 481 1263.5Q437 1242 407 1195Q377 1148 361.5 1071.5Q346 995 346 886L346 578Q346 490 356 423Q366 356 386 308.5Q406 261 434.5 230.5Q463 200 500.5 186Q538 172 583 172Q640 172 684 194Q728 216 758 264.5Q788 313 803 391Q818 469 818 578Z"/><path id="glyph-91" d="M271 1082L445 329L668 1082L848 1082L1073 323L1245 1082L1480 1082L1188 0L988 0L757 754L528 0L328 0L35 1082Z"/><path id="glyph-77" d="M382 1082L382 0L140 0L140 1082ZM124 1366Q124 1421 160.5 1457.5Q197 1494 262 1494Q326 1494 363 1457.5Q400 1421 400 1366Q400 1312 363 1276Q326 1240 262 1240Q197 1240 160.5 1276Q124 1312 124 1366Z"/><path id="glyph-76" d="M362 1536L362 958Q417 1026 493 1064Q571 1102 666 1102Q746 1102 810.5 1080Q875 1058 922 1009.5Q969 961 993.5 883.5Q1018 806 1018 695L1018 0L776 0L776 697Q776 775 753.5 821Q731 867 688 887.5Q645 908 583 908Q518 908 468.5 882Q419 856 386 811Q373 793 362 772L362 0L122 0L122 1536Z"/></defs><g style="transform: scale(1)"><g transform="translate(0 0)"><g transform="translate(2 1)"><rect class="sb3-extension" rx="24" ry="24" x="0" y="0" width="428" height="48" fill="#485B8C" stroke="#2C3A5E"/><use href="#sb3-eclipseBlock" transform="translate(16 4)"/><line class="sb3-extension" stroke-linecap="round" x1="0" y1="0" x2="0" y2="40" transform="translate(64 4)"/><g aria-label="dot" fill="#FFFFFF" transform="translate(73 17)" x="0" y="13"><use transform="translate(0.000 13.000) scale(0.0078125 -0.0078125)" href="#glyph-72"/><use transform="translate(9.016 13.000) scale(0.0078125 -0.0078125)" href="#glyph-83"/><use transform="translate(18.094 13.000) scale(0.0078125 -0.0078125)" href="#glyph-88"/></g><g transform="translate(105 8)"><rect rx="16" ry="16" x="0" y="0" width="40" height="32" class="sb3-extension sb3-input sb3-input-number"/><g aria-label="1" fill="#575E75" transform="translate(15 9)" x="0" y="13"><use transform="translate(0.000 13.000) scale(0.0078125 -0.0078125)" href="#glyph-21"/></g></g><g transform="translate(153 8)"><rect rx="16" ry="16" x="0" y="0" width="40" height="32" class="sb3-extension sb3-input sb3-input-number"/><g aria-label="0" fill="#575E75" transform="translate(15 9)" x="0" y="13"><use transform="translate(0.000 13.000) scale(0.0078125 -0.0078125)" href="#glyph-20"/></g></g><g transform="translate(201 8)"><rect rx="16" ry="16" x="0" y="0" width="40" height="32" class="sb3-extension sb3-input sb3-input-number"/><g aria-label="0" fill="#575E75" transform="translate(15 9)" x="0" y="13"><use transform="translate(0.000 13.000) scale(0.0078125 -0.0078125)" href="#glyph-20"/></g></g><g aria-label="with" fill="#FFFFFF" transform="translate(249 17)" x="0" y="13"><use transform="translate(0.000 13.000) scale(0.0078125 -0.0078125)" href="#glyph-91"/><use transform="translate(11.875 13.000) scale(0.0078125 -0.0078125)" href="#glyph-77"/><use transform="translate(15.953 13.000) scale(0.0078125 -0.0078125)" href="#glyph-88"/><use transform="translate(21.281 13.000) scale(0.0078125 -0.0078125)" href="#glyph-76"/></g><g transform="translate(288 8)"><rect rx="16" ry="16" x="0" y="0" width="40" height="32" class="sb3-extension sb3-input sb3-input-number"/><g aria-label="0" fill="#575E75" transform="translate(15 9)" x="0" y="13"><use transform="translate(0.000 13.000) scale(0.0078125 -0.0078125)" href="#glyph-20"/></g></g><g transform="translate(336 8)"><rect rx="16" ry="16" x="0" y="0" width="40" height="32" class="sb3-extension sb3-input sb3-input-number"/><g aria-label="1" fill="#575E75" transform="translate(15 9)" x="0" y="13"><use transform="translate(0.000 13.000) scale(0.0078125 -0.0078125)" href="#glyph-21"/></g></g><g transform="translate(384 8)"><rect rx="16" ry="16" x="0" y="0" width="40" height="32" class="sb3-extension sb3-input sb3-input-number"/><g aria-label="0" fill="#575E75" transform="translate(15 9)" x="0" y="13"><use transform="translate(0.000 13.000) scale(0.0078125 -0.0078125)" href="#glyph-20"/></g></g></g></g></g></svg>
