<svg xmlns="http://www.w3.org/2000/svg" version="1.1" width="301" height="50" viewBox="0 0 301 50" role="img" aria-label="local-light-capable draw calls — localLightDrawCalls"><title>local-light-capable draw calls — localLightDrawCalls</title><defs><g id="sb3-eclipseBlock" transform="scale(.625)"><path d="M30 6A26 26 0 1 0 30 58A30 30 0 0 1 30 6Z" fill="#FFFFFF"/><path d="m45 18 15 9-15 9-15-9Zm-15 13 13 8v15l-13-8Zm17 8 13-8v15l-13 8Z" fill="#FFFFFF"/></g><style>.sb3-extension{fill:#485B8C;stroke:#2C3A5E}.sb3-extension-alt{fill:#3B4C78}.sb3-extension-dark{fill:#2C3A5E}.sb3-input-number,.sb3-input-string{fill:#fff;stroke:#2C3A5E}.sb3-input-color{stroke:#fff}.sb3-control{fill:#FFAB19;stroke:#CF8B17}.sb3-events{fill:#FFBF00;stroke:#CC9900}.sb3-operators{fill:#59C059;stroke:#389438}.sb3-variables{fill:#FF8C1A;stroke:#DB6E00}</style><path id="glyph-80" d="M382 1536L382 0L140 0L140 1536Z"/><path id="glyph-83" d="M78 529L78 552Q78 669 112 769.5Q146 870 210.5 944.5Q275 1019 368.5 1060.5Q462 1102 580 1102Q699 1102 792.5 1060.5Q886 1019 951 944.5Q1016 870 1050 769.5Q1084 669 1084 552L1084 529Q1084 412 1050 312Q1016 212 951 137.5Q886 63 793 21.5Q700 -20 582 -20Q463 -20 369.5 21.5Q276 63 211 137.5Q146 212 112 312Q78 412 78 529ZM319 552L319 529Q319 456 334 391Q349 326 381 277Q413 228 463 200Q513 172 582 172Q649 172 698.5 200Q748 228 780 277Q812 326 827.5 391Q843 456 843 529L843 552Q843 624 827.5 688.5Q812 753 779.5 803Q747 853 697.5 881.5Q648 910 580 910Q512 910 462.5 881.5Q413 853 381 803Q349 753 334 688.5Q319 624 319 552Z"/><path id="glyph-71" d="M566 172Q625 172 672.5 195.5Q720 219 749.5 261Q779 303 782 358L1009 358Q1007 253 947 167Q887 81 788 30.5Q689 -20 569 -20Q445 -20 353 22.5Q261 65 200 140Q139 215 108.5 313Q78 411 78 523L78 558Q78 670 108.5 768.5Q139 867 200 942Q261 1017 353 1059.5Q445 1102 568 1102Q698 1102 796 1050.5Q894 999 950.5 907.5Q1007 816 1009 695L782 695Q779 755 752.5 803.5Q726 852 678.5 881Q631 910 565 910Q492 910 444 880.5Q396 851 369 800.5Q342 750 330.5 687.5Q319 625 319 558L319 523Q319 456 330 393Q341 330 368.5 280.5Q396 231 444 201.5Q492 172 566 172Z"/><path id="glyph-69" d="M742 107Q728 92 712 77Q665 34 600.5 7Q536 -20 452 -20Q346 -20 263 22.5Q180 65 133 137.5Q86 210 86 302Q86 388 118.5 454.5Q151 521 214.5 566Q278 611 370 634.5Q462 658 580 658L734 658L734 733Q734 791 713 833Q692 875 649.5 898Q607 921 543 921Q484 921 441 901Q398 881 374 847Q350 813 350 770L110 770Q110 834 141 894Q172 954 231 1001Q290 1048 372 1075Q454 1102 556 1102Q678 1102 772.5 1061Q867 1020 921.5 937.5Q976 855 976 731L976 250Q976 176 986.5 117.5Q997 59 1017 16L1017 0L770 0Q753 39 744 100Q743 103 742 107ZM734 509L598 509Q531 509 480 496.5Q429 484 395 460Q361 436 344 402Q327 368 327 325Q327 282 347 246.5Q367 211 405.5 191Q444 171 499 171Q573 171 628.5 201.5Q684 232 716 277Q727 291 734 306Z"/><path id="glyph-17" d="M609 718L609 526L80 526L80 718Z"/><path id="glyph-77" d="M382 1082L382 0L140 0L140 1082ZM124 1366Q124 1421 160.5 1457.5Q197 1494 262 1494Q326 1494 363 1457.5Q400 1421 400 1366Q400 1312 363 1276Q326 1240 262 1240Q197 1240 160.5 1276Q124 1312 124 1366Z"/><path id="glyph-75" d="M817 1082L1036 1082L1036 30Q1036 -116 974 -218Q912 -320 801 -373.5Q690 -427 544 -427Q482 -427 406.5 -409Q331 -391 260.5 -351.5Q190 -312 143 -248L256 -106Q314 -175 384 -207Q454 -239 531 -239Q614 -239 672.5 -208.5Q731 -178 763 -119Q795 -60 795 25L795 102Q750 49 689 18Q614 -20 513 -20Q414 -20 334.5 21Q255 62 198.5 136Q142 210 112 310.5Q82 411 82 529L82 550Q82 673 112 774.5Q142 876 198 949.5Q254 1023 334 1062.5Q414 1102 515 1102Q620 1102 695 1064Q760 1030 807 971ZM323 550L323 529Q323 455 337.5 391Q352 327 382.5 278.5Q413 230 460.5 202.5Q508 175 573 175Q658 175 713 211Q766 246 795 305L795 779Q781 805 764 827Q733 865 686 886.5Q639 908 575 908Q510 908 462 880Q414 852 383.5 803Q353 754 338 689Q323 624 323 550Z"/><path id="glyph-76" d="M362 1536L362 958Q417 1026 493 1064Q571 1102 666 1102Q746 1102 810.5 1080Q875 1058 922 1009.5Q969 961 993.5 883.5Q1018 806 1018 695L1018 0L776 0L776 697Q776 775 753.5 821Q731 867 688 887.5Q645 908 583 908Q518 908 468.5 882Q419 856 386 811Q373 793 362 772L362 0L122 0L122 1536Z"/><path id="glyph-88" d="M620 1082L620 906L427 906L427 299Q427 249 441.5 222.5Q456 196 482 187Q508 178 543 178Q568 178 591 181Q614 184 628 187L629 3Q599 -6 559.5 -13Q520 -20 469 -20Q386 -20 322 9.5Q258 39 222 106Q186 173 186 284L186 906L10 906L10 1082L186 1082L186 1347L427 1347L427 1082Z"/><path id="glyph-84" d="M1071 551L1071 530Q1071 412 1043.5 311.5Q1016 211 962.5 136.5Q909 62 831 21Q753 -20 651 -20Q550 -20 475 18Q412 48 366 101L366 -416L125 -416L125 1082L347 1082L357 969Q406 1030 474 1064Q549 1102 649 1102Q751 1102 830 1062.5Q909 1023 963 950.5Q1017 878 1044 776.5Q1071 675 1071 551ZM830 530L830 551Q830 626 816 690.5Q802 755 772 804Q742 853 695.5 880.5Q649 908 584 908Q520 908 474 886.5Q428 865 397 827Q379 805 366 779L366 303Q395 243 448.5 207.5Q502 172 586 172Q651 172 697 200Q743 228 772.5 277.5Q802 327 816 392Q830 457 830 530Z"/><path id="glyph-70" d="M125 1536L366 1536L366 976Q412 1032 476 1064Q550 1102 650 1102Q754 1102 833.5 1062Q913 1022 966 948.5Q1019 875 1045.5 774Q1072 673 1072 551L1072 530Q1072 410 1045.5 309.5Q1019 209 965.5 135Q912 61 833.5 20.5Q755 -20 652 -20Q551 -20 476 18Q404 54 355 120L343 0L125 0ZM831 530L831 551Q831 624 819 688.5Q807 753 779.5 802Q752 851 705.5 879.5Q659 908 590 908Q526 908 480 886Q434 864 403 826Q381 799 366 766L366 319Q368 315 370 312Q399 249 453 211.5Q507 174 592 174Q659 174 705 201Q751 228 778.5 276.5Q806 325 818.5 390Q831 455 831 530Z"/><path id="glyph-73" d="M601 -20Q481 -20 384.5 19.5Q288 59 220.5 130Q153 201 117 297Q81 393 81 504L81 544Q81 671 118 774Q155 877 221 950.5Q287 1024 377 1063Q467 1102 572 1102Q688 1102 775 1063Q862 1024 919.5 953.5Q977 883 1005.5 786Q1034 689 1034 572L1034 469L324 469Q328 418 343 373Q362 312 400 267Q438 222 492 196.5Q546 171 615 171Q702 171 770 206Q838 241 888 305L1015 182Q980 131 924 84.5Q868 38 787.5 9Q707 -20 601 -20ZM329 642L796 642L796 661Q794 726 770.5 783Q747 840 699 875Q651 910 571 910Q511 910 464.5 884.5Q418 859 387 811Q356 763 340 696Q333 670 329 642Z"/><path id="glyph-72" d="M80 529L80 550Q80 673 109 774.5Q138 876 193 949.5Q248 1023 327 1062.5Q406 1102 505 1102Q603 1102 677 1064Q738 1033 784 979L784 1536L1026 1536L1026 0L807 0L795 116Q745 53 677 18Q602 -20 503 -20Q405 -20 326.5 21Q248 62 193 136Q138 210 109 310.5Q80 411 80 529ZM321 550L321 529Q321 455 334.5 391Q348 327 377 278.5Q406 230 452.5 202.5Q499 175 564 175Q646 175 699 211Q752 247 783 309Q783 310 784 312L784 773Q769 802 750 827Q719 865 673.5 886.5Q628 908 566 908Q500 908 454 880Q408 852 378.5 803Q349 754 335 689Q321 624 321 550Z"/><path id="glyph-86" d="M697 1089L695 865Q673 869 647.5 871Q622 873 597 873Q535 873 488 855.5Q441 838 410 806Q382 778 366 740L366 0L125 0L125 1082L355 1082L362 954Q364 958 367 962Q407 1028 468.5 1065Q530 1102 611 1102Q633 1102 658.5 1098Q684 1094 697 1089Z"/><path id="glyph-91" d="M271 1082L445 329L668 1082L848 1082L1073 323L1245 1082L1480 1082L1188 0L988 0L757 754L528 0L328 0L35 1082Z"/><path id="glyph-87" d="M731 293Q731 329 713 358.5Q695 388 644.5 412Q594 436 496 456Q410 475 338.5 501.5Q267 528 216 566Q165 604 137 656Q109 708 109 776Q109 842 138 901Q167 960 221 1005Q275 1050 352.5 1076Q430 1102 526 1102Q662 1102 759.5 1056.5Q857 1011 909 933.5Q961 856 961 759L720 759Q720 802 698.5 839.5Q677 877 634 900.5Q591 924 526 924Q464 924 423.5 904.5Q383 885 363.5 854Q344 823 344 786Q344 759 354.5 737.5Q365 716 390 698.5Q415 681 458.5 666Q502 651 568 637Q692 611 781.5 570.5Q871 530 919 466.5Q967 403 967 306Q967 234 936.5 174.5Q906 115 848 71.5Q790 28 709.5 4Q629 -20 529 -20Q382 -20 280 32.5Q178 85 125.5 167.5Q73 250 73 339L306 339Q310 272 343.5 232.5Q377 193 427.5 175.5Q478 158 532 158Q597 158 641 175.5Q685 193 708 223.5Q731 254 731 293Z"/></defs><g style="transform: scale(1)"><g transform="translate(0 0)"><g transform="translate(2 1)"><rect class="sb3-extension" rx="24" ry="24" x="0" y="0" width="297" height="48" fill="#485B8C" stroke="#2C3A5E"/><use href="#sb3-eclipseBlock" transform="translate(16 4)"/><line class="sb3-extension" stroke-linecap="round" x1="0" y1="0" x2="0" y2="40" transform="translate(64 4)"/><g aria-label="local-light-capable" fill="#FFFFFF" transform="translate(73 17)" x="0" y="13"><use transform="translate(0.000 13.000) scale(0.0078125 -0.0078125)" href="#glyph-80"/><use transform="translate(4.078 13.000) scale(0.0078125 -0.0078125)" href="#glyph-83"/><use transform="translate(13.156 13.000) scale(0.0078125 -0.0078125)" href="#glyph-71"/><use transform="translate(21.508 13.000) scale(0.0078125 -0.0078125)" href="#glyph-69"/><use transform="translate(30.133 13.000) scale(0.0078125 -0.0078125)" href="#glyph-80"/><use transform="translate(34.211 13.000) scale(0.0078125 -0.0078125)" href="#glyph-17"/><use transform="translate(39.648 13.000) scale(0.0078125 -0.0078125)" href="#glyph-80"/><use transform="translate(43.727 13.000) scale(0.0078125 -0.0078125)" href="#glyph-77"/><use transform="translate(47.805 13.000) scale(0.0078125 -0.0078125)" href="#glyph-75"/><use transform="translate(56.875 13.000) scale(0.0078125 -0.0078125)" href="#glyph-76"/><use transform="translate(65.766 13.000) scale(0.0078125 -0.0078125)" href="#glyph-88"/><use transform="translate(71.094 13.000) scale(0.0078125 -0.0078125)" href="#glyph-17"/><use transform="translate(76.531 13.000) scale(0.0078125 -0.0078125)" href="#glyph-71"/><use transform="translate(84.883 13.000) scale(0.0078125 -0.0078125)" href="#glyph-69"/><use transform="translate(93.508 13.000) scale(0.0078125 -0.0078125)" href="#glyph-84"/><use transform="translate(102.500 13.000) scale(0.0078125 -0.0078125)" href="#glyph-69"/><use transform="translate(111.125 13.000) scale(0.0078125 -0.0078125)" href="#glyph-70"/><use transform="translate(120.117 13.000) scale(0.0078125 -0.0078125)" href="#glyph-80"/><use transform="translate(124.195 13.000) scale(0.0078125 -0.0078125)" href="#glyph-73"/></g><g aria-label="draw" fill="#FFFFFF" transform="translate(211 17)" x="0" y="13"><use transform="translate(0.000 13.000) scale(0.0078125 -0.0078125)" href="#glyph-72"/><use transform="translate(9.016 13.000) scale(0.0078125 -0.0078125)" href="#glyph-86"/><use transform="translate(14.391 13.000) scale(0.0078125 -0.0078125)" href="#glyph-69"/><use transform="translate(23.016 13.000) scale(0.0078125 -0.0078125)" href="#glyph-91"/></g><g aria-label="calls" fill="#FFFFFF" transform="translate(251 17)" x="0" y="13"><use transform="translate(0.000 13.000) scale(0.0078125 -0.0078125)" href="#glyph-71"/><use transform="translate(8.352 13.000) scale(0.0078125 -0.0078125)" href="#glyph-69"/><use transform="translate(16.977 13.000) scale(0.0078125 -0.0078125)" href="#glyph-80"/><use transform="translate(21.055 13.000) scale(0.0078125 -0.0078125)" href="#glyph-80"/><use transform="translate(25.133 13.000) scale(0.0078125 -0.0078125)" href="#glyph-87"/></g></g></g></g></svg>
