<svg xmlns="http://www.w3.org/2000/svg" version="1.1" width="636" height="66" viewBox="0 0 636 66" role="img" aria-label="play sprite [NAME] frames [FIRST] to [LAST] at [FPS] FPS looping [LOOPING] — playSpriteFrames"><title>play sprite [NAME] frames [FIRST] to [LAST] at [FPS] FPS looping [LOOPING] — playSpriteFrames</title><defs><g id="sb3-dropdownArrow" transform="scale(0.944)"><path d="M12.71 2.44A2.41 2.41 0 0 1 12 4.16L8.08 8.08a2.45 2.45 0 0 1-3.45 0L.72 4.16A2.42 2.42 0 0 1 0 2.44 2.48 2.48 0 0 1 .71.71C1 .47 1.43 0 6.36 0s5.39.46 5.64.71a2.44 2.44 0 0 1 .71 1.73z" fill="#231f20" opacity=".1"/><path d="M6.36 7.79a1.43 1.43 0 0 1-1-.42L1.42 3.45a1.44 1.44 0 0 1 0-2c.56-.56 9.31-.56 9.87 0a1.44 1.44 0 0 1 0 2L7.37 7.37a1.43 1.43 0 0 1-1.01.42z" fill="#fff"/></g><g id="sb3-eclipseBlock" transform="scale(.625)"><path d="M30 6A26 26 0 1 0 30 58A30 30 0 0 1 30 6Z" fill="#FFFFFF"/><path d="m45 18 15 9-15 9-15-9Zm-15 13 13 8v15l-13-8Zm17 8 13-8v15l-13 8Z" fill="#FFFFFF"/></g><style>.sb3-extension{fill:#485B8C;stroke:#2C3A5E}.sb3-extension-alt{fill:#3B4C78}.sb3-extension-dark{fill:#2C3A5E}.sb3-input-number,.sb3-input-string{fill:#fff;stroke:#2C3A5E}.sb3-input-color{stroke:#fff}.sb3-control{fill:#FFAB19;stroke:#CF8B17}.sb3-events{fill:#FFBF00;stroke:#CC9900}.sb3-operators{fill:#59C059;stroke:#389438}.sb3-variables{fill:#FF8C1A;stroke:#DB6E00}</style><path id="glyph-84" d="M1071 551L1071 530Q1071 412 1043.5 311.5Q1016 211 962.5 136.5Q909 62 831 21Q753 -20 651 -20Q550 -20 475 18Q412 48 366 101L366 -416L125 -416L125 1082L347 1082L357 969Q406 1030 474 1064Q549 1102 649 1102Q751 1102 830 1062.5Q909 1023 963 950.5Q1017 878 1044 776.5Q1071 675 1071 551ZM830 530L830 551Q830 626 816 690.5Q802 755 772 804Q742 853 695.5 880.5Q649 908 584 908Q520 908 474 886.5Q428 865 397 827Q379 805 366 779L366 303Q395 243 448.5 207.5Q502 172 586 172Q651 172 697 200Q743 228 772.5 277.5Q802 327 816 392Q830 457 830 530Z"/><path id="glyph-80" d="M382 1536L382 0L140 0L140 1536Z"/><path id="glyph-69" d="M742 107Q728 92 712 77Q665 34 600.5 7Q536 -20 452 -20Q346 -20 263 22.5Q180 65 133 137.5Q86 210 86 302Q86 388 118.5 454.5Q151 521 214.5 566Q278 611 370 634.5Q462 658 580 658L734 658L734 733Q734 791 713 833Q692 875 649.5 898Q607 921 543 921Q484 921 441 901Q398 881 374 847Q350 813 350 770L110 770Q110 834 141 894Q172 954 231 1001Q290 1048 372 1075Q454 1102 556 1102Q678 1102 772.5 1061Q867 1020 921.5 937.5Q976 855 976 731L976 250Q976 176 986.5 117.5Q997 59 1017 16L1017 0L770 0Q753 39 744 100Q743 103 742 107ZM734 509L598 509Q531 509 480 496.5Q429 484 395 460Q361 436 344 402Q327 368 327 325Q327 282 347 246.5Q367 211 405.5 191Q444 171 499 171Q573 171 628.5 201.5Q684 232 716 277Q727 291 734 306Z"/><path id="glyph-93" d="M272 1082L507 343L732 1082L990 1082L556 -165Q541 -205 517 -252Q493 -299 454.5 -341.5Q416 -384 359 -410.5Q302 -437 221 -437Q189 -437 159.5 -431.5Q130 -426 104 -420L103 -236Q113 -237 127.5 -238Q142 -239 151 -239Q211 -239 251 -224.5Q291 -210 316.5 -178Q342 -146 360 -92L395 3L12 1082Z"/><path id="glyph-87" d="M731 293Q731 329 713 358.5Q695 388 644.5 412Q594 436 496 456Q410 475 338.5 501.5Q267 528 216 566Q165 604 137 656Q109 708 109 776Q109 842 138 901Q167 960 221 1005Q275 1050 352.5 1076Q430 1102 526 1102Q662 1102 759.5 1056.5Q857 1011 909 933.5Q961 856 961 759L720 759Q720 802 698.5 839.5Q677 877 634 900.5Q591 924 526 924Q464 924 423.5 904.5Q383 885 363.5 854Q344 823 344 786Q344 759 354.5 737.5Q365 716 390 698.5Q415 681 458.5 666Q502 651 568 637Q692 611 781.5 570.5Q871 530 919 466.5Q967 403 967 306Q967 234 936.5 174.5Q906 115 848 71.5Q790 28 709.5 4Q629 -20 529 -20Q382 -20 280 32.5Q178 85 125.5 167.5Q73 250 73 339L306 339Q310 272 343.5 232.5Q377 193 427.5 175.5Q478 158 532 158Q597 158 641 175.5Q685 193 708 223.5Q731 254 731 293Z"/><path id="glyph-86" d="M697 1089L695 865Q673 869 647.5 871Q622 873 597 873Q535 873 488 855.5Q441 838 410 806Q382 778 366 740L366 0L125 0L125 1082L355 1082L362 954Q364 958 367 962Q407 1028 468.5 1065Q530 1102 611 1102Q633 1102 658.5 1098Q684 1094 697 1089Z"/><path id="glyph-77" d="M382 1082L382 0L140 0L140 1082ZM124 1366Q124 1421 160.5 1457.5Q197 1494 262 1494Q326 1494 363 1457.5Q400 1421 400 1366Q400 1312 363 1276Q326 1240 262 1240Q197 1240 160.5 1276Q124 1312 124 1366Z"/><path id="glyph-88" d="M620 1082L620 906L427 906L427 299Q427 249 441.5 222.5Q456 196 482 187Q508 178 543 178Q568 178 591 181Q614 184 628 187L629 3Q599 -6 559.5 -13Q520 -20 469 -20Q386 -20 322 9.5Q258 39 222 106Q186 173 186 284L186 906L10 906L10 1082L186 1082L186 1347L427 1347L427 1082Z"/><path id="glyph-73" d="M601 -20Q481 -20 384.5 19.5Q288 59 220.5 130Q153 201 117 297Q81 393 81 504L81 544Q81 671 118 774Q155 877 221 950.5Q287 1024 377 1063Q467 1102 572 1102Q688 1102 775 1063Q862 1024 919.5 953.5Q977 883 1005.5 786Q1034 689 1034 572L1034 469L324 469Q328 418 343 373Q362 312 400 267Q438 222 492 196.5Q546 171 615 171Q702 171 770 206Q838 241 888 305L1015 182Q980 131 924 84.5Q868 38 787.5 9Q707 -20 601 -20ZM329 642L796 642L796 661Q794 726 770.5 783Q747 840 699 875Q651 910 571 910Q511 910 464.5 884.5Q418 859 387 811Q356 763 340 696Q333 670 329 642Z"/><path id="glyph-74" d="M450 0L209 0L209 906L43 906L43 1082L209 1082L209 1186Q209 1307 254.5 1389.5Q300 1472 385 1514.5Q470 1557 586 1557Q622 1557 657 1552.5Q692 1548 725 1539L719 1353Q699 1358 675.5 1360Q652 1362 625 1362Q570 1362 530.5 1341.5Q491 1321 470.5 1282Q450 1243 450 1186L450 1082L673 1082L673 906L450 906Z"/><path id="glyph-81" d="M365 778L365 0L124 0L124 1082L351 1082L359 961Q411 1027 489 1064Q569 1102 675 1102Q749 1102 810.5 1080.5Q872 1059 918 1013Q951 980 972 933Q982 946 993 960Q1046 1026 1125 1064Q1204 1102 1306 1102Q1389 1102 1454.5 1079.5Q1520 1057 1566 1009Q1612 961 1636 884.5Q1660 808 1660 700L1660 0L1418 0L1418 701Q1418 783 1394.5 828Q1371 873 1328 890.5Q1285 908 1225 908Q1169 908 1126.5 887.5Q1084 867 1055 831Q1026 794 1012 747Q1012 734 1012 721L1012 0L771 0L771 700Q771 779 747.5 824Q724 869 680.5 888.5Q637 908 577 908Q509 908 461.5 882Q414 856 384 811Q374 795 365 778Z"/><path id="glyph-21" d="M768 1461L768 0L527 0L527 1175L170 1054L170 1253L739 1461Z"/><path id="glyph-83" d="M78 529L78 552Q78 669 112 769.5Q146 870 210.5 944.5Q275 1019 368.5 1060.5Q462 1102 580 1102Q699 1102 792.5 1060.5Q886 1019 951 944.5Q1016 870 1050 769.5Q1084 669 1084 552L1084 529Q1084 412 1050 312Q1016 212 951 137.5Q886 63 793 21.5Q700 -20 582 -20Q463 -20 369.5 21.5Q276 63 211 137.5Q146 212 112 312Q78 412 78 529ZM319 552L319 529Q319 456 334 391Q349 326 381 277Q413 228 463 200Q513 172 582 172Q649 172 698.5 200Q748 228 780 277Q812 326 827.5 391Q843 456 843 529L843 552Q843 624 827.5 688.5Q812 753 779.5 803Q747 853 697.5 881.5Q648 910 580 910Q512 910 462.5 881.5Q413 853 381 803Q349 753 334 688.5Q319 624 319 552Z"/><path id="glyph-28" d="M1062 397Q1062 261 999 168Q936 75 827.5 27.5Q719 -20 583 -20Q447 -20 338 27.5Q229 75 166 168Q103 261 103 397Q103 487 138 560.5Q173 634 238 688Q283 725 340 751Q247 799 193 879Q135 964 135 1073Q135 1203 192.5 1292.5Q250 1382 351 1429Q452 1476 582 1476Q712 1476 813 1429Q914 1382 971.5 1292.5Q1029 1203 1029 1073Q1029 964 972 879Q917 798 823 750Q825 749 828 748Q937 697 999.5 607Q1062 517 1062 397ZM820 409Q820 482 790 537Q760 592 706 622Q652 652 581 652Q509 652 456 622Q403 592 373.5 537Q344 482 344 409Q344 335 373 281.5Q402 228 456 200Q510 172 583 172Q656 172 709 200Q762 228 791 281.5Q820 335 820 409ZM788 1065Q788 1130 762.5 1179.5Q737 1229 691 1257Q645 1285 582 1285Q519 1285 473 1258Q427 1231 402 1182Q377 1133 377 1065Q377 998 402 948.5Q427 899 473.5 871Q520 843 583 843Q646 843 692 871Q738 899 763 948.5Q788 998 788 1065Z"/><path id="glyph-42" d="M993 819L993 620L399 620L399 0L148 0L148 1456L1076 1456L1076 1256L399 1256L399 819Z"/><path id="glyph-52" d="M701 543L399 543L399 0L148 0L148 1456L701 1456Q870 1456 988.5 1396.5Q1107 1337 1169 1232.5Q1231 1128 1231 994Q1231 853 1169 752Q1107 651 988.5 597Q870 543 701 543ZM399 742L701 742Q800 742 861 774Q922 806 950.5 862.5Q979 919 979 992Q979 1061 950.5 1121.5Q922 1182 861 1219Q800 1256 701 1256L399 1256Z"/><path id="glyph-55" d="M914 375Q914 420 900.5 455Q887 490 853 519Q819 548 757.5 575.5Q696 603 601 632Q497 664 409.5 703.5Q322 743 257 795.5Q192 848 156 916.5Q120 985 120 1075Q120 1164 157.5 1237Q195 1310 264.5 1363.5Q334 1417 429 1446.5Q524 1476 639 1476Q801 1476 918.5 1416Q1036 1356 1099.5 1255Q1163 1154 1163 1032L914 1032Q914 1104 883.5 1159.5Q853 1215 791.5 1247Q730 1279 636 1279Q547 1279 488 1252Q429 1225 400 1179Q371 1133 371 1075Q371 1034 390 1000.5Q409 967 448 938.5Q487 910 546 885Q605 860 685 837Q806 801 896 757.5Q986 714 1046 659Q1106 604 1136 534.5Q1166 465 1166 377Q1166 285 1129 211.5Q1092 138 1023.5 86.5Q955 35 859.5 7.5Q764 -20 647 -20Q542 -20 440.5 8Q339 36 256 93.5Q173 151 124 237.5Q75 324 75 440L326 440Q326 369 350.5 319Q375 269 419 237.5Q463 206 521.5 191Q580 176 647 176Q735 176 794.5 201Q854 226 884 271Q914 316 914 375Z"/><path id="glyph-82" d="M363 769L363 0L122 0L122 1082L349 1082L357 951Q360 955 363 958Q419 1027 498 1064.5Q577 1102 674 1102Q752 1102 815.5 1080.5Q879 1059 924.5 1011Q970 963 994 886.5Q1018 810 1018 699L1018 0L776 0L776 700Q776 778 753.5 823.5Q731 869 688.5 888.5Q646 908 583 908Q521 908 472 882Q423 856 390 811Q375 791 363 769Z"/><path id="glyph-75" d="M817 1082L1036 1082L1036 30Q1036 -116 974 -218Q912 -320 801 -373.5Q690 -427 544 -427Q482 -427 406.5 -409Q331 -391 260.5 -351.5Q190 -312 143 -248L256 -106Q314 -175 384 -207Q454 -239 531 -239Q614 -239 672.5 -208.5Q731 -178 763 -119Q795 -60 795 25L795 102Q750 49 689 18Q614 -20 513 -20Q414 -20 334.5 21Q255 62 198.5 136Q142 210 112 310.5Q82 411 82 529L82 550Q82 673 112 774.5Q142 876 198 949.5Q254 1023 334 1062.5Q414 1102 515 1102Q620 1102 695 1064Q760 1030 807 971ZM323 550L323 529Q323 455 337.5 391Q352 327 382.5 278.5Q413 230 460.5 202.5Q508 175 573 175Q658 175 713 211Q766 246 795 305L795 779Q781 805 764 827Q733 865 686 886.5Q639 908 575 908Q510 908 462 880Q414 852 383.5 803Q353 754 338 689Q323 624 323 550Z"/></defs><g style="transform: scale(1)"><g transform="translate(0 0)"><g transform="translate(2 1)"><path class="sb3-extension" d="M 0 4&#xA;      A 4 4 0 0 1 4 0&#xA;      H 12 c 2 0 3 1 4 2&#xA;      l 4 4&#xA;      c 1 1 2 2 4 2&#xA;      h 12&#xA;      c 2 0 3 -1 4 -2&#xA;      l 4 -4&#xA;      c 1 -1 2 -2 4 -2&#xA;      L 628 0&#xA;      a 4 4 0 0 1 4 4 L 632 52 a 4 4 0 0 1 -4 4 L 48 56 c -2 0 -3 1 -4 2 l -4 4 c -1 1 -2 2 -4 2 h -12 c -2 0 -3 -1 -4 -2 l -4 -4 c -1 -1 -2 -2 -4 -2 L 4 56 a 4 4 0 0 1 -4 -4 Z" fill="#485B8C" stroke="#2C3A5E"/><use href="#sb3-eclipseBlock" transform="translate(8 12)"/><line class="sb3-extension" stroke-linecap="round" x1="0" y1="0" x2="0" y2="40" transform="translate(56 8)"/><g aria-label="play" fill="#FFFFFF" transform="translate(65 21)" x="0" y="13"><use transform="translate(0.000 13.000) scale(0.0078125 -0.0078125)" href="#glyph-84"/><use transform="translate(8.992 13.000) scale(0.0078125 -0.0078125)" href="#glyph-80"/><use transform="translate(13.070 13.000) scale(0.0078125 -0.0078125)" href="#glyph-69"/><use transform="translate(21.578 13.000) scale(0.0078125 -0.0078125)" href="#glyph-93"/></g><g aria-label="sprite" fill="#FFFFFF" transform="translate(100 21)" x="0" y="13"><use transform="translate(0.000 13.000) scale(0.0078125 -0.0078125)" href="#glyph-87"/><use transform="translate(8.234 13.000) scale(0.0078125 -0.0078125)" href="#glyph-84"/><use transform="translate(17.227 13.000) scale(0.0078125 -0.0078125)" href="#glyph-86"/><use transform="translate(22.883 13.000) scale(0.0078125 -0.0078125)" href="#glyph-77"/><use transform="translate(26.961 13.000) scale(0.0078125 -0.0078125)" href="#glyph-88"/><use transform="translate(32.289 13.000) scale(0.0078125 -0.0078125)" href="#glyph-73"/></g><g transform="translate(149 12)"><rect rx="16" ry="16" x="0" y="0" width="63" height="32" class="sb3-extension sb3-input sb3-input-string"/><g aria-label="sprite" fill="#575E75" transform="translate(11 9)" x="0" y="13"><use transform="translate(0.000 13.000) scale(0.0078125 -0.0078125)" href="#glyph-87"/><use transform="translate(8.234 13.000) scale(0.0078125 -0.0078125)" href="#glyph-84"/><use transform="translate(17.227 13.000) scale(0.0078125 -0.0078125)" href="#glyph-86"/><use transform="translate(22.883 13.000) scale(0.0078125 -0.0078125)" href="#glyph-77"/><use transform="translate(26.961 13.000) scale(0.0078125 -0.0078125)" href="#glyph-88"/><use transform="translate(32.289 13.000) scale(0.0078125 -0.0078125)" href="#glyph-73"/></g></g><g aria-label="frames" fill="#FFFFFF" transform="translate(220 21)" x="0" y="13"><use transform="translate(0.000 13.000) scale(0.0078125 -0.0078125)" href="#glyph-74"/><use transform="translate(5.648 13.000) scale(0.0078125 -0.0078125)" href="#glyph-86"/><use transform="translate(11.023 13.000) scale(0.0078125 -0.0078125)" href="#glyph-69"/><use transform="translate(19.648 13.000) scale(0.0078125 -0.0078125)" href="#glyph-81"/><use transform="translate(33.586 13.000) scale(0.0078125 -0.0078125)" href="#glyph-73"/><use transform="translate(42.156 13.000) scale(0.0078125 -0.0078125)" href="#glyph-87"/></g><g transform="translate(279 12)"><rect rx="16" ry="16" x="0" y="0" width="40" height="32" class="sb3-extension sb3-input sb3-input-number"/><g aria-label="1" fill="#575E75" transform="translate(15 9)" x="0" y="13"><use transform="translate(0.000 13.000) scale(0.0078125 -0.0078125)" href="#glyph-21"/></g></g><g aria-label="to" fill="#FFFFFF" transform="translate(327 21)" x="0" y="13"><use transform="translate(0.000 13.000) scale(0.0078125 -0.0078125)" href="#glyph-88"/><use transform="translate(5.141 13.000) scale(0.0078125 -0.0078125)" href="#glyph-83"/></g><g transform="translate(350 12)"><rect rx="16" ry="16" x="0" y="0" width="40" height="32" class="sb3-extension sb3-input sb3-input-number"/><g aria-label="8" fill="#575E75" transform="translate(15 9)" x="0" y="13"><use transform="translate(0.000 13.000) scale(0.0078125 -0.0078125)" href="#glyph-28"/></g></g><g aria-label="at" fill="#FFFFFF" transform="translate(398 21)" x="0" y="13"><use transform="translate(0.000 13.000) scale(0.0078125 -0.0078125)" href="#glyph-69"/><use transform="translate(8.625 13.000) scale(0.0078125 -0.0078125)" href="#glyph-88"/></g><g transform="translate(420 12)"><rect rx="16" ry="16" x="0" y="0" width="40" height="32" class="sb3-extension sb3-input sb3-input-number"/><g aria-label="8" fill="#575E75" transform="translate(15 9)" x="0" y="13"><use transform="translate(0.000 13.000) scale(0.0078125 -0.0078125)" href="#glyph-28"/></g></g><g aria-label="FPS" fill="#FFFFFF" transform="translate(468 21)" x="0" y="13"><use transform="translate(0.000 13.000) scale(0.0078125 -0.0078125)" href="#glyph-42"/><use transform="translate(8.813 13.000) scale(0.0078125 -0.0078125)" href="#glyph-52"/><use transform="translate(19.023 13.000) scale(0.0078125 -0.0078125)" href="#glyph-55"/></g><g aria-label="looping" fill="#FFFFFF" transform="translate(502 21)" x="0" y="13"><use transform="translate(0.000 13.000) scale(0.0078125 -0.0078125)" href="#glyph-80"/><use transform="translate(4.078 13.000) scale(0.0078125 -0.0078125)" href="#glyph-83"/><use transform="translate(13.156 13.000) scale(0.0078125 -0.0078125)" href="#glyph-83"/><use transform="translate(22.234 13.000) scale(0.0078125 -0.0078125)" href="#glyph-84"/><use transform="translate(31.227 13.000) scale(0.0078125 -0.0078125)" href="#glyph-77"/><use transform="translate(35.305 13.000) scale(0.0078125 -0.0078125)" href="#glyph-82"/><use transform="translate(44.211 13.000) scale(0.0078125 -0.0078125)" href="#glyph-75"/></g><g transform="translate(564 12)"><rect rx="16" ry="16" x="0" y="0" width="60" height="32" class="sb3-extension sb3-input sb3-input-number-dropdown sb3-extension-alt" fill="#3B4C78" stroke="#2C3A5E"/><g aria-label="on" fill="#FFFFFF" transform="translate(11 9)" x="0" y="13"><use transform="translate(0.000 13.000) scale(0.0078125 -0.0078125)" href="#glyph-83"/><use transform="translate(9.078 13.000) scale(0.0078125 -0.0078125)" href="#glyph-82"/></g><use href="#sb3-dropdownArrow" transform="translate(36 13)"/></g></g></g></g></svg>
