<svg xmlns="http://www.w3.org/2000/svg" version="1.1" width="246" height="50" viewBox="0 0 246 50" role="img" aria-label="post [PROPERTY] ? — postBoolean"><title>post [PROPERTY] ? — postBoolean</title><defs><g id="sb3-dropdownArrow" transform="scale(0.944)"><path d="M12.71 2.44A2.41 2.41 0 0 1 12 4.16L8.08 8.08a2.45 2.45 0 0 1-3.45 0L.72 4.16A2.42 2.42 0 0 1 0 2.44 2.48 2.48 0 0 1 .71.71C1 .47 1.43 0 6.36 0s5.39.46 5.64.71a2.44 2.44 0 0 1 .71 1.73z" fill="#231f20" opacity=".1"/><path d="M6.36 7.79a1.43 1.43 0 0 1-1-.42L1.42 3.45a1.44 1.44 0 0 1 0-2c.56-.56 9.31-.56 9.87 0a1.44 1.44 0 0 1 0 2L7.37 7.37a1.43 1.43 0 0 1-1.01.42z" fill="#fff"/></g><g id="sb3-eclipseBlock" transform="scale(.625)"><path d="M30 6A26 26 0 1 0 30 58A30 30 0 0 1 30 6Z" fill="#FFFFFF"/><path d="m45 18 15 9-15 9-15-9Zm-15 13 13 8v15l-13-8Zm17 8 13-8v15l-13 8Z" fill="#FFFFFF"/></g><style>.sb3-extension{fill:#485B8C;stroke:#2C3A5E}.sb3-extension-alt{fill:#3B4C78}.sb3-extension-dark{fill:#2C3A5E}.sb3-input-number,.sb3-input-string{fill:#fff;stroke:#2C3A5E}.sb3-input-color{stroke:#fff}.sb3-control{fill:#FFAB19;stroke:#CF8B17}.sb3-events{fill:#FFBF00;stroke:#CC9900}.sb3-operators{fill:#59C059;stroke:#389438}.sb3-variables{fill:#FF8C1A;stroke:#DB6E00}</style><path id="glyph-84" d="M1071 551L1071 530Q1071 412 1043.5 311.5Q1016 211 962.5 136.5Q909 62 831 21Q753 -20 651 -20Q550 -20 475 18Q412 48 366 101L366 -416L125 -416L125 1082L347 1082L357 969Q406 1030 474 1064Q549 1102 649 1102Q751 1102 830 1062.5Q909 1023 963 950.5Q1017 878 1044 776.5Q1071 675 1071 551ZM830 530L830 551Q830 626 816 690.5Q802 755 772 804Q742 853 695.5 880.5Q649 908 584 908Q520 908 474 886.5Q428 865 397 827Q379 805 366 779L366 303Q395 243 448.5 207.5Q502 172 586 172Q651 172 697 200Q743 228 772.5 277.5Q802 327 816 392Q830 457 830 530Z"/><path id="glyph-83" d="M78 529L78 552Q78 669 112 769.5Q146 870 210.5 944.5Q275 1019 368.5 1060.5Q462 1102 580 1102Q699 1102 792.5 1060.5Q886 1019 951 944.5Q1016 870 1050 769.5Q1084 669 1084 552L1084 529Q1084 412 1050 312Q1016 212 951 137.5Q886 63 793 21.5Q700 -20 582 -20Q463 -20 369.5 21.5Q276 63 211 137.5Q146 212 112 312Q78 412 78 529ZM319 552L319 529Q319 456 334 391Q349 326 381 277Q413 228 463 200Q513 172 582 172Q649 172 698.5 200Q748 228 780 277Q812 326 827.5 391Q843 456 843 529L843 552Q843 624 827.5 688.5Q812 753 779.5 803Q747 853 697.5 881.5Q648 910 580 910Q512 910 462.5 881.5Q413 853 381 803Q349 753 334 688.5Q319 624 319 552Z"/><path id="glyph-87" d="M731 293Q731 329 713 358.5Q695 388 644.5 412Q594 436 496 456Q410 475 338.5 501.5Q267 528 216 566Q165 604 137 656Q109 708 109 776Q109 842 138 901Q167 960 221 1005Q275 1050 352.5 1076Q430 1102 526 1102Q662 1102 759.5 1056.5Q857 1011 909 933.5Q961 856 961 759L720 759Q720 802 698.5 839.5Q677 877 634 900.5Q591 924 526 924Q464 924 423.5 904.5Q383 885 363.5 854Q344 823 344 786Q344 759 354.5 737.5Q365 716 390 698.5Q415 681 458.5 666Q502 651 568 637Q692 611 781.5 570.5Q871 530 919 466.5Q967 403 967 306Q967 234 936.5 174.5Q906 115 848 71.5Q790 28 709.5 4Q629 -20 529 -20Q382 -20 280 32.5Q178 85 125.5 167.5Q73 250 73 339L306 339Q310 272 343.5 232.5Q377 193 427.5 175.5Q478 158 532 158Q597 158 641 175.5Q685 193 708 223.5Q731 254 731 293Z"/><path id="glyph-88" d="M620 1082L620 906L427 906L427 299Q427 249 441.5 222.5Q456 196 482 187Q508 178 543 178Q568 178 591 181Q614 184 628 187L629 3Q599 -6 559.5 -13Q520 -20 469 -20Q386 -20 322 9.5Q258 39 222 106Q186 173 186 284L186 906L10 906L10 1082L186 1082L186 1347L427 1347L427 1082Z"/><path id="glyph-69" d="M742 107Q728 92 712 77Q665 34 600.5 7Q536 -20 452 -20Q346 -20 263 22.5Q180 65 133 137.5Q86 210 86 302Q86 388 118.5 454.5Q151 521 214.5 566Q278 611 370 634.5Q462 658 580 658L734 658L734 733Q734 791 713 833Q692 875 649.5 898Q607 921 543 921Q484 921 441 901Q398 881 374 847Q350 813 350 770L110 770Q110 834 141 894Q172 954 231 1001Q290 1048 372 1075Q454 1102 556 1102Q678 1102 772.5 1061Q867 1020 921.5 937.5Q976 855 976 731L976 250Q976 176 986.5 117.5Q997 59 1017 16L1017 0L770 0Q753 39 744 100Q743 103 742 107ZM734 509L598 509Q531 509 480 496.5Q429 484 395 460Q361 436 344 402Q327 368 327 325Q327 282 347 246.5Q367 211 405.5 191Q444 171 499 171Q573 171 628.5 201.5Q684 232 716 277Q727 291 734 306Z"/><path id="glyph-71" d="M566 172Q625 172 672.5 195.5Q720 219 749.5 261Q779 303 782 358L1009 358Q1007 253 947 167Q887 81 788 30.5Q689 -20 569 -20Q445 -20 353 22.5Q261 65 200 140Q139 215 108.5 313Q78 411 78 523L78 558Q78 670 108.5 768.5Q139 867 200 942Q261 1017 353 1059.5Q445 1102 568 1102Q698 1102 796 1050.5Q894 999 950.5 907.5Q1007 816 1009 695L782 695Q779 755 752.5 803.5Q726 852 678.5 881Q631 910 565 910Q492 910 444 880.5Q396 851 369 800.5Q342 750 330.5 687.5Q319 625 319 558L319 523Q319 456 330 393Q341 330 368.5 280.5Q396 231 444 201.5Q492 172 566 172Z"/><path id="glyph-77" d="M382 1082L382 0L140 0L140 1082ZM124 1366Q124 1421 160.5 1457.5Q197 1494 262 1494Q326 1494 363 1457.5Q400 1421 400 1366Q400 1312 363 1276Q326 1240 262 1240Q197 1240 160.5 1276Q124 1312 124 1366Z"/><path id="glyph-90" d="M273 1082L509 301L741 1082L991 1082L615 0L400 0L22 1082Z"/><path id="glyph-73" d="M601 -20Q481 -20 384.5 19.5Q288 59 220.5 130Q153 201 117 297Q81 393 81 504L81 544Q81 671 118 774Q155 877 221 950.5Q287 1024 377 1063Q467 1102 572 1102Q688 1102 775 1063Q862 1024 919.5 953.5Q977 883 1005.5 786Q1034 689 1034 572L1034 469L324 469Q328 418 343 373Q362 312 400 267Q438 222 492 196.5Q546 171 615 171Q702 171 770 206Q838 241 888 305L1015 182Q980 131 924 84.5Q868 38 787.5 9Q707 -20 601 -20ZM329 642L796 642L796 661Q794 726 770.5 783Q747 840 699 875Q651 910 571 910Q511 910 464.5 884.5Q418 859 387 811Q356 763 340 696Q333 670 329 642Z"/><path id="glyph-35" d="M575 429L352 429Q353 522 368 585.5Q383 649 418.5 701Q454 753 513 811Q559 855 596 894.5Q633 934 655 978.5Q677 1023 677 1081Q677 1144 656 1188Q635 1232 594.5 1255Q554 1278 494 1278Q444 1278 400 1258.5Q356 1239 329 1198.5Q302 1158 300 1092L59 1092Q61 1218 119 1304Q177 1390 275 1433Q373 1476 494 1476Q628 1476 723 1430.5Q818 1385 868.5 1298.5Q919 1212 919 1090Q919 1002 884 930.5Q849 859 793 797.5Q737 736 672 675Q616 624 596 564.5Q576 505 575 429ZM332 117Q332 171 369 208.5Q406 246 470 246Q534 246 571 208.5Q608 171 608 117Q608 63 571 25.5Q534 -12 470 -12Q406 -12 369 25.5Q332 63 332 117Z"/></defs><g style="transform: scale(1)"><g transform="translate(0 0)"><g transform="translate(2 1)"><path class="sb3-extension" d="M 24 0 L 218 0 242 24 L 242 24 218 48 L 24 48 0 24 L 0 24 24 0 Z" fill="#485B8C" stroke="#2C3A5E"/><use href="#sb3-eclipseBlock" transform="translate(24 4)"/><line class="sb3-extension" stroke-linecap="round" x1="0" y1="0" x2="0" y2="40" transform="translate(72 4)"/><g aria-label="post" fill="#FFFFFF" transform="translate(81 17)" x="0" y="13"><use transform="translate(0.000 13.000) scale(0.0078125 -0.0078125)" href="#glyph-84"/><use transform="translate(8.992 13.000) scale(0.0078125 -0.0078125)" href="#glyph-83"/><use transform="translate(18.070 13.000) scale(0.0078125 -0.0078125)" href="#glyph-87"/><use transform="translate(26.305 13.000) scale(0.0078125 -0.0078125)" href="#glyph-88"/></g><g transform="translate(121 8)"><rect rx="16" ry="16" x="0" y="0" width="85" height="32" class="sb3-extension sb3-input sb3-input-number-dropdown sb3-extension-alt" fill="#3B4C78" stroke="#2C3A5E"/><g aria-label="active" fill="#FFFFFF" transform="translate(11 9)" x="0" y="13"><use transform="translate(0.000 13.000) scale(0.0078125 -0.0078125)" href="#glyph-69"/><use transform="translate(8.625 13.000) scale(0.0078125 -0.0078125)" href="#glyph-71"/><use transform="translate(16.977 13.000) scale(0.0078125 -0.0078125)" href="#glyph-88"/><use transform="translate(22.305 13.000) scale(0.0078125 -0.0078125)" href="#glyph-77"/><use transform="translate(26.383 13.000) scale(0.0078125 -0.0078125)" href="#glyph-90"/><use transform="translate(34.219 13.000) scale(0.0078125 -0.0078125)" href="#glyph-73"/></g><use href="#sb3-dropdownArrow" transform="translate(61 13)"/></g><g aria-label="?" fill="#FFFFFF" transform="translate(214 17)" x="0" y="13"><use transform="translate(0.000 13.000) scale(0.0078125 -0.0078125)" href="#glyph-35"/></g></g></g></g></svg>
